<mxfile host="app.diagrams.net" modified="2023-08-26T08:36:49.301Z" agent="Mozilla/5.0 (Windows NT 10.0; Win64; x64) AppleWebKit/537.36 (KHTML, like Gecko) Chrome/116.0.0.0 Safari/537.36" etag="WZF0xc85Yg-cz03LkPMN" version="21.6.9" type="device" pages="2">
  <diagram name="Страница 1" id="kE3Vbjc7K7nwyK-bKpHq">
    <mxGraphModel dx="2022" dy="1832" grid="1" gridSize="10" guides="1" tooltips="1" connect="1" arrows="1" fold="1" page="1" pageScale="1" pageWidth="827" pageHeight="1169" math="0" shadow="0">
      <root>
        <mxCell id="0" />
        <mxCell id="1" parent="0" />
        <mxCell id="gic03VplcVnoxDSR1JPC-1" value="Menu" style="rounded=1;whiteSpace=wrap;html=1;labelBackgroundColor=none;labelBorderColor=none;glass=0;fillColor=#ffe6cc;strokeColor=#d79b00;" parent="1" vertex="1">
          <mxGeometry x="136.63" y="250" width="70" height="30" as="geometry" />
        </mxCell>
        <mxCell id="gic03VplcVnoxDSR1JPC-4" value="Orders" style="shape=parallelogram;perimeter=parallelogramPerimeter;whiteSpace=wrap;html=1;fixedSize=1;labelBackgroundColor=none;fillColor=#d5e8d4;strokeColor=#82b366;" parent="1" vertex="1">
          <mxGeometry x="290" y="250" width="83.5" height="30" as="geometry" />
        </mxCell>
        <mxCell id="FmC58GzVaDgXy4PpP-SY-26" value="" style="edgeStyle=orthogonalEdgeStyle;rounded=0;orthogonalLoop=1;jettySize=auto;html=1;entryX=0;entryY=0.5;entryDx=0;entryDy=0;" parent="1" target="FmC58GzVaDgXy4PpP-SY-24" edge="1">
          <mxGeometry relative="1" as="geometry">
            <mxPoint x="580" y="265" as="sourcePoint" />
            <mxPoint x="757.5" y="265" as="targetPoint" />
            <Array as="points" />
          </mxGeometry>
        </mxCell>
        <mxCell id="gic03VplcVnoxDSR1JPC-14" value="Accounts" style="shape=trapezoid;perimeter=trapezoidPerimeter;whiteSpace=wrap;html=1;fixedSize=1;labelBackgroundColor=#D4E1F5;fillColor=#dae8fc;strokeColor=#6c8ebf;" parent="1" vertex="1">
          <mxGeometry x="500" y="250" width="90" height="30" as="geometry" />
        </mxCell>
        <mxCell id="gic03VplcVnoxDSR1JPC-15" value="Menu_Item" style="swimlane;whiteSpace=wrap;html=1;labelBackgroundColor=none;fillColor=#ffe6cc;strokeColor=#d79b00;" parent="1" vertex="1">
          <mxGeometry x="119.13" y="330" width="105" height="160" as="geometry">
            <mxRectangle x="119.13" y="330" width="70" height="30" as="alternateBounds" />
          </mxGeometry>
        </mxCell>
        <mxCell id="gic03VplcVnoxDSR1JPC-17" value="food_name&lt;br style=&quot;font-size: 12px;&quot;&gt;price&lt;br&gt;kitchen&lt;br&gt;description&lt;br&gt;images&lt;br&gt;...&lt;br&gt;rating&lt;br&gt;reviews" style="text;html=1;align=left;verticalAlign=middle;resizable=0;points=[];autosize=1;strokeColor=none;fillColor=none;fontSize=12;labelBackgroundColor=none;" parent="gic03VplcVnoxDSR1JPC-15" vertex="1">
          <mxGeometry x="7.5" y="15" width="90" height="130" as="geometry" />
        </mxCell>
        <mxCell id="gic03VplcVnoxDSR1JPC-18" value="Orders" style="swimlane;whiteSpace=wrap;html=1;labelBackgroundColor=none;fillColor=#d5e8d4;strokeColor=#82b366;" parent="1" vertex="1">
          <mxGeometry x="306" y="330" width="107.37" height="160" as="geometry">
            <mxRectangle x="306" y="320" width="80" height="30" as="alternateBounds" />
          </mxGeometry>
        </mxCell>
        <mxCell id="gic03VplcVnoxDSR1JPC-19" value="id&lt;br&gt;menu_item&lt;br&gt;quantity&lt;br&gt;price&lt;br&gt;weight&lt;br&gt;sum weight&lt;br&gt;order_date&lt;br&gt;discounts" style="text;html=1;align=left;verticalAlign=middle;resizable=0;points=[];autosize=1;strokeColor=none;fillColor=none;labelBackgroundColor=none;" parent="gic03VplcVnoxDSR1JPC-18" vertex="1">
          <mxGeometry x="8.680000000000005" y="20" width="90" height="130" as="geometry" />
        </mxCell>
        <mxCell id="gic03VplcVnoxDSR1JPC-21" value="Accounts" style="swimlane;whiteSpace=wrap;html=1;labelBackgroundColor=none;fillColor=#dae8fc;strokeColor=#6c8ebf;" parent="1" vertex="1">
          <mxGeometry x="470" y="330" width="140" height="120" as="geometry" />
        </mxCell>
        <mxCell id="gic03VplcVnoxDSR1JPC-24" value="User (username, ...)&lt;br&gt;gender&lt;br&gt;address&lt;br&gt;card - fk&lt;br&gt;//&lt;br&gt;points for discounts" style="text;html=1;align=left;verticalAlign=middle;resizable=0;points=[];autosize=1;strokeColor=none;fillColor=none;labelBackgroundColor=none;" parent="gic03VplcVnoxDSR1JPC-21" vertex="1">
          <mxGeometry x="5" y="15" width="130" height="100" as="geometry" />
        </mxCell>
        <mxCell id="gic03VplcVnoxDSR1JPC-29" value="" style="edgeStyle=orthogonalEdgeStyle;rounded=0;orthogonalLoop=1;jettySize=auto;html=1;fontColor=default;labelBackgroundColor=none;entryX=0.52;entryY=-0.087;entryDx=0;entryDy=0;entryPerimeter=0;" parent="1" source="gic03VplcVnoxDSR1JPC-27" target="gic03VplcVnoxDSR1JPC-1" edge="1">
          <mxGeometry relative="1" as="geometry">
            <mxPoint x="30" y="170" as="targetPoint" />
          </mxGeometry>
        </mxCell>
        <mxCell id="gic03VplcVnoxDSR1JPC-30" value="" style="edgeStyle=orthogonalEdgeStyle;rounded=0;orthogonalLoop=1;jettySize=auto;html=1;fontColor=default;labelBackgroundColor=none;" parent="1" source="gic03VplcVnoxDSR1JPC-27" target="gic03VplcVnoxDSR1JPC-4" edge="1">
          <mxGeometry relative="1" as="geometry" />
        </mxCell>
        <mxCell id="gic03VplcVnoxDSR1JPC-32" value="" style="edgeStyle=orthogonalEdgeStyle;rounded=0;orthogonalLoop=1;jettySize=auto;html=1;fontColor=default;labelBackgroundColor=none;entryX=0.5;entryY=0;entryDx=0;entryDy=0;" parent="1" source="gic03VplcVnoxDSR1JPC-27" target="gic03VplcVnoxDSR1JPC-14" edge="1">
          <mxGeometry relative="1" as="geometry">
            <mxPoint x="610" y="230" as="targetPoint" />
          </mxGeometry>
        </mxCell>
        <mxCell id="gic03VplcVnoxDSR1JPC-27" value="Apps" style="rounded=0;whiteSpace=wrap;html=1;fontSize=15;labelBackgroundColor=none;" parent="1" vertex="1">
          <mxGeometry x="285.13" y="140" width="93.25" height="30" as="geometry" />
        </mxCell>
        <mxCell id="gic03VplcVnoxDSR1JPC-50" value="&lt;h1&gt;Food delivery app&lt;/h1&gt;&lt;p&gt;Version 23.08.2023&lt;/p&gt;&lt;p&gt;&lt;font color=&quot;#ff3333&quot;&gt;Schema for app&lt;/font&gt;&lt;/p&gt;&lt;p&gt;&lt;font color=&quot;#ff3333&quot;&gt;One restaurant, many orders, many clients&lt;/font&gt;&lt;/p&gt;" style="text;html=1;strokeColor=none;fillColor=none;spacing=5;spacingTop=-20;whiteSpace=wrap;overflow=hidden;rounded=0;" parent="1" vertex="1">
          <mxGeometry x="240" width="270" height="120" as="geometry" />
        </mxCell>
        <mxCell id="gic03VplcVnoxDSR1JPC-60" value="Basket" style="rounded=0;whiteSpace=wrap;html=1;" parent="1" vertex="1">
          <mxGeometry x="390" y="250" width="50" height="30" as="geometry" />
        </mxCell>
        <mxCell id="gic03VplcVnoxDSR1JPC-61" value="Customers" style="rounded=0;whiteSpace=wrap;html=1;" parent="1" vertex="1">
          <mxGeometry x="637.5" y="210" width="70" height="30" as="geometry" />
        </mxCell>
        <mxCell id="gic03VplcVnoxDSR1JPC-69" value="Restaurant" style="swimlane;whiteSpace=wrap;html=1;labelBackgroundColor=none;fillColor=#e1d5e7;strokeColor=#9673a6;startSize=23;" parent="1" vertex="1">
          <mxGeometry x="-240" y="75" width="100" height="160" as="geometry" />
        </mxCell>
        <mxCell id="gic03VplcVnoxDSR1JPC-70" value="id&lt;br style=&quot;font-size: 12px;&quot;&gt;name&lt;br&gt;description&lt;br&gt;images&lt;br&gt;address&lt;br&gt;rating&lt;br&gt;...&lt;br&gt;medieval check" style="text;html=1;align=left;verticalAlign=middle;resizable=0;points=[];autosize=1;strokeColor=none;fillColor=none;fontSize=12;labelBackgroundColor=none;" parent="gic03VplcVnoxDSR1JPC-69" vertex="1">
          <mxGeometry x="5" y="20" width="110" height="130" as="geometry" />
        </mxCell>
        <mxCell id="gic03VplcVnoxDSR1JPC-75" value="Models" style="rounded=0;whiteSpace=wrap;html=1;" parent="1" vertex="1">
          <mxGeometry y="330" width="50" height="30" as="geometry" />
        </mxCell>
        <mxCell id="gic03VplcVnoxDSR1JPC-76" value="Customer" style="rounded=1;whiteSpace=wrap;html=1;" parent="1" vertex="1">
          <mxGeometry x="80" y="577.5" width="60" height="30" as="geometry" />
        </mxCell>
        <mxCell id="gic03VplcVnoxDSR1JPC-82" value="" style="edgeStyle=orthogonalEdgeStyle;rounded=0;orthogonalLoop=1;jettySize=auto;html=1;entryX=0.006;entryY=0.621;entryDx=0;entryDy=0;entryPerimeter=0;" parent="1" source="gic03VplcVnoxDSR1JPC-79" target="gic03VplcVnoxDSR1JPC-83" edge="1">
          <mxGeometry relative="1" as="geometry">
            <mxPoint x="420" y="592.4999999999998" as="targetPoint" />
          </mxGeometry>
        </mxCell>
        <mxCell id="gic03VplcVnoxDSR1JPC-79" value="Order" style="whiteSpace=wrap;html=1;sketch=0;rounded=1;" parent="1" vertex="1">
          <mxGeometry x="250" y="582.5" width="60" height="20" as="geometry" />
        </mxCell>
        <mxCell id="gic03VplcVnoxDSR1JPC-86" value="" style="edgeStyle=orthogonalEdgeStyle;rounded=0;orthogonalLoop=1;jettySize=auto;html=1;entryX=0;entryY=0.5;entryDx=0;entryDy=0;" parent="1" source="gic03VplcVnoxDSR1JPC-83" target="gic03VplcVnoxDSR1JPC-87" edge="1">
          <mxGeometry relative="1" as="geometry">
            <mxPoint x="608.75" y="588.7499999999998" as="targetPoint" />
            <Array as="points" />
          </mxGeometry>
        </mxCell>
        <mxCell id="gic03VplcVnoxDSR1JPC-83" value="Payment" style="whiteSpace=wrap;html=1;sketch=0;rounded=1;" parent="1" vertex="1">
          <mxGeometry x="423.75" y="580" width="66.25" height="20" as="geometry" />
        </mxCell>
        <mxCell id="gic03VplcVnoxDSR1JPC-87" value="Delivery" style="whiteSpace=wrap;html=1;sketch=0;rounded=1;" parent="1" vertex="1">
          <mxGeometry x="610" y="581.25" width="60" height="17.5" as="geometry" />
        </mxCell>
        <mxCell id="gic03VplcVnoxDSR1JPC-89" value="Processes" style="text;html=1;strokeColor=#d6b656;fillColor=#fff2cc;align=center;verticalAlign=middle;whiteSpace=wrap;rounded=0;fontSize=15;" parent="1" vertex="1">
          <mxGeometry x="307.93" y="520" width="103.5" height="30" as="geometry" />
        </mxCell>
        <mxCell id="gic03VplcVnoxDSR1JPC-90" value="LIne 1" style="text;html=1;strokeColor=#9673a6;fillColor=#e1d5e7;align=center;verticalAlign=middle;whiteSpace=wrap;rounded=0;" parent="1" vertex="1">
          <mxGeometry y="577.5" width="60" height="30" as="geometry" />
        </mxCell>
        <mxCell id="gic03VplcVnoxDSR1JPC-92" value="Manager" style="rounded=1;whiteSpace=wrap;html=1;" parent="1" vertex="1">
          <mxGeometry x="80" y="712.5" width="60" height="30" as="geometry" />
        </mxCell>
        <mxCell id="gic03VplcVnoxDSR1JPC-95" value="Menu" style="whiteSpace=wrap;html=1;sketch=0;rounded=1;" parent="1" vertex="1">
          <mxGeometry x="280" y="710" width="60" height="35" as="geometry" />
        </mxCell>
        <mxCell id="gic03VplcVnoxDSR1JPC-101" value="LIne 2" style="text;html=1;strokeColor=#9673a6;fillColor=#e1d5e7;align=center;verticalAlign=middle;whiteSpace=wrap;rounded=0;" parent="1" vertex="1">
          <mxGeometry y="712.5" width="60" height="30" as="geometry" />
        </mxCell>
        <mxCell id="gic03VplcVnoxDSR1JPC-103" value="Courier" style="rounded=1;whiteSpace=wrap;html=1;" parent="1" vertex="1">
          <mxGeometry x="80" y="787.5" width="60" height="30" as="geometry" />
        </mxCell>
        <mxCell id="gic03VplcVnoxDSR1JPC-104" value="" style="shape=waypoint;sketch=0;size=6;pointerEvents=1;points=[];fillColor=default;resizable=0;rotatable=0;perimeter=centerPerimeter;snapToPoint=1;rounded=1;" parent="1" vertex="1">
          <mxGeometry x="270" y="792.5" width="20" height="20" as="geometry" />
        </mxCell>
        <mxCell id="gic03VplcVnoxDSR1JPC-105" value="Customer" style="whiteSpace=wrap;html=1;sketch=0;rounded=1;" parent="1" vertex="1">
          <mxGeometry x="280" y="785" width="60" height="35" as="geometry" />
        </mxCell>
        <mxCell id="gic03VplcVnoxDSR1JPC-106" value="LIne 3" style="text;html=1;strokeColor=#9673a6;fillColor=#e1d5e7;align=center;verticalAlign=middle;whiteSpace=wrap;rounded=0;" parent="1" vertex="1">
          <mxGeometry y="787.5" width="60" height="30" as="geometry" />
        </mxCell>
        <mxCell id="FmC58GzVaDgXy4PpP-SY-3" value="" style="endArrow=classic;html=1;rounded=0;exitX=0.5;exitY=1;exitDx=0;exitDy=0;" parent="1" source="gic03VplcVnoxDSR1JPC-79" target="FmC58GzVaDgXy4PpP-SY-5" edge="1">
          <mxGeometry relative="1" as="geometry">
            <mxPoint x="370" y="632" as="sourcePoint" />
            <mxPoint x="280" y="660" as="targetPoint" />
          </mxGeometry>
        </mxCell>
        <mxCell id="FmC58GzVaDgXy4PpP-SY-5" value="Kitchen" style="rounded=1;whiteSpace=wrap;html=1;" parent="1" vertex="1">
          <mxGeometry x="245" y="650" width="70" height="20" as="geometry" />
        </mxCell>
        <mxCell id="FmC58GzVaDgXy4PpP-SY-6" value="" style="endArrow=classic;html=1;rounded=0;exitX=1;exitY=0.5;exitDx=0;exitDy=0;" parent="1" source="FmC58GzVaDgXy4PpP-SY-5" target="FmC58GzVaDgXy4PpP-SY-7" edge="1">
          <mxGeometry width="50" height="50" relative="1" as="geometry">
            <mxPoint x="440" y="710" as="sourcePoint" />
            <mxPoint x="420" y="660" as="targetPoint" />
          </mxGeometry>
        </mxCell>
        <mxCell id="FmC58GzVaDgXy4PpP-SY-7" value="Service delivery" style="rounded=1;whiteSpace=wrap;html=1;" parent="1" vertex="1">
          <mxGeometry x="423.75" y="645" width="60" height="30" as="geometry" />
        </mxCell>
        <mxCell id="FmC58GzVaDgXy4PpP-SY-8" value="Courier" style="rounded=1;whiteSpace=wrap;html=1;" parent="1" vertex="1">
          <mxGeometry x="607.5" y="650" width="82.5" height="17.5" as="geometry" />
        </mxCell>
        <mxCell id="FmC58GzVaDgXy4PpP-SY-9" value="" style="endArrow=classic;html=1;rounded=0;entryX=0;entryY=0.5;entryDx=0;entryDy=0;exitX=1;exitY=0.5;exitDx=0;exitDy=0;" parent="1" source="FmC58GzVaDgXy4PpP-SY-7" target="FmC58GzVaDgXy4PpP-SY-8" edge="1">
          <mxGeometry width="50" height="50" relative="1" as="geometry">
            <mxPoint x="440" y="700" as="sourcePoint" />
            <mxPoint x="490" y="650" as="targetPoint" />
          </mxGeometry>
        </mxCell>
        <mxCell id="FmC58GzVaDgXy4PpP-SY-10" value="" style="endArrow=classic;html=1;rounded=0;entryX=0.5;entryY=1;entryDx=0;entryDy=0;" parent="1" target="gic03VplcVnoxDSR1JPC-87" edge="1">
          <mxGeometry width="50" height="50" relative="1" as="geometry">
            <mxPoint x="640" y="650" as="sourcePoint" />
            <mxPoint x="640" y="607.5" as="targetPoint" />
          </mxGeometry>
        </mxCell>
        <mxCell id="FmC58GzVaDgXy4PpP-SY-13" value="" style="endArrow=classic;html=1;rounded=0;exitX=0.997;exitY=0.46;exitDx=0;exitDy=0;exitPerimeter=0;entryX=0;entryY=0.486;entryDx=0;entryDy=0;entryPerimeter=0;" parent="1" source="gic03VplcVnoxDSR1JPC-92" target="gic03VplcVnoxDSR1JPC-95" edge="1">
          <mxGeometry relative="1" as="geometry">
            <mxPoint x="170" y="720" as="sourcePoint" />
            <mxPoint x="245" y="727" as="targetPoint" />
          </mxGeometry>
        </mxCell>
        <mxCell id="FmC58GzVaDgXy4PpP-SY-14" value="CRUD with menu" style="edgeLabel;resizable=0;html=1;align=center;verticalAlign=middle;" parent="FmC58GzVaDgXy4PpP-SY-13" connectable="0" vertex="1">
          <mxGeometry relative="1" as="geometry">
            <mxPoint x="4" y="1" as="offset" />
          </mxGeometry>
        </mxCell>
        <mxCell id="FmC58GzVaDgXy4PpP-SY-16" value="" style="endArrow=classic;html=1;rounded=0;exitX=0.997;exitY=0.46;exitDx=0;exitDy=0;exitPerimeter=0;" parent="1" target="gic03VplcVnoxDSR1JPC-104" edge="1">
          <mxGeometry relative="1" as="geometry">
            <mxPoint x="140" y="802" as="sourcePoint" />
            <mxPoint x="250" y="803" as="targetPoint" />
          </mxGeometry>
        </mxCell>
        <mxCell id="FmC58GzVaDgXy4PpP-SY-17" value="get or dismiss order" style="edgeLabel;resizable=0;html=1;align=center;verticalAlign=middle;" parent="FmC58GzVaDgXy4PpP-SY-16" connectable="0" vertex="1">
          <mxGeometry relative="1" as="geometry">
            <mxPoint x="-5" as="offset" />
          </mxGeometry>
        </mxCell>
        <mxCell id="FmC58GzVaDgXy4PpP-SY-20" value="" style="endArrow=classic;html=1;rounded=0;exitX=0.997;exitY=0.46;exitDx=0;exitDy=0;exitPerimeter=0;entryX=0;entryY=0.486;entryDx=0;entryDy=0;entryPerimeter=0;" parent="1" edge="1">
          <mxGeometry relative="1" as="geometry">
            <mxPoint x="140" y="592" as="sourcePoint" />
            <mxPoint x="250" y="593" as="targetPoint" />
          </mxGeometry>
        </mxCell>
        <mxCell id="FmC58GzVaDgXy4PpP-SY-21" value="make order" style="edgeLabel;resizable=0;html=1;align=center;verticalAlign=middle;" parent="FmC58GzVaDgXy4PpP-SY-20" connectable="0" vertex="1">
          <mxGeometry relative="1" as="geometry">
            <mxPoint x="4" y="1" as="offset" />
          </mxGeometry>
        </mxCell>
        <mxCell id="FmC58GzVaDgXy4PpP-SY-24" value="Manager" style="rounded=0;whiteSpace=wrap;html=1;" parent="1" vertex="1">
          <mxGeometry x="637.5" y="250" width="70" height="30" as="geometry" />
        </mxCell>
        <mxCell id="FmC58GzVaDgXy4PpP-SY-25" value="Couriers" style="rounded=0;whiteSpace=wrap;html=1;" parent="1" vertex="1">
          <mxGeometry x="637.5" y="290" width="70" height="30" as="geometry" />
        </mxCell>
        <mxCell id="FmC58GzVaDgXy4PpP-SY-27" value="" style="endArrow=none;html=1;rounded=0;exitX=1;exitY=0.5;exitDx=0;exitDy=0;" parent="1" source="gic03VplcVnoxDSR1JPC-14" edge="1">
          <mxGeometry width="50" height="50" relative="1" as="geometry">
            <mxPoint x="600" y="260" as="sourcePoint" />
            <mxPoint x="637.5" y="220" as="targetPoint" />
          </mxGeometry>
        </mxCell>
        <mxCell id="FmC58GzVaDgXy4PpP-SY-28" value="" style="endArrow=none;html=1;rounded=0;exitX=1;exitY=0.5;exitDx=0;exitDy=0;entryX=0;entryY=0.5;entryDx=0;entryDy=0;" parent="1" source="gic03VplcVnoxDSR1JPC-14" target="FmC58GzVaDgXy4PpP-SY-25" edge="1">
          <mxGeometry width="50" height="50" relative="1" as="geometry">
            <mxPoint x="607.5" y="265" as="sourcePoint" />
            <mxPoint x="647.5" y="230" as="targetPoint" />
          </mxGeometry>
        </mxCell>
        <mxCell id="FmC58GzVaDgXy4PpP-SY-30" value="Customers" style="rounded=1;whiteSpace=wrap;html=1;" parent="1" vertex="1">
          <mxGeometry x="80" y="852.5" width="70" height="30" as="geometry" />
        </mxCell>
        <mxCell id="FmC58GzVaDgXy4PpP-SY-31" value="Menu" style="whiteSpace=wrap;html=1;sketch=0;rounded=1;" parent="1" vertex="1">
          <mxGeometry x="280" y="850" width="60" height="35" as="geometry" />
        </mxCell>
        <mxCell id="FmC58GzVaDgXy4PpP-SY-32" value="LIne 4" style="text;html=1;strokeColor=#9673a6;fillColor=#e1d5e7;align=center;verticalAlign=middle;whiteSpace=wrap;rounded=0;" parent="1" vertex="1">
          <mxGeometry y="852.5" width="60" height="30" as="geometry" />
        </mxCell>
        <mxCell id="FmC58GzVaDgXy4PpP-SY-33" value="" style="endArrow=classic;html=1;rounded=0;exitX=0.997;exitY=0.46;exitDx=0;exitDy=0;exitPerimeter=0;entryX=0;entryY=0.486;entryDx=0;entryDy=0;entryPerimeter=0;" parent="1" source="FmC58GzVaDgXy4PpP-SY-30" target="FmC58GzVaDgXy4PpP-SY-31" edge="1">
          <mxGeometry relative="1" as="geometry">
            <mxPoint x="170" y="860" as="sourcePoint" />
            <mxPoint x="245" y="867" as="targetPoint" />
          </mxGeometry>
        </mxCell>
        <mxCell id="FmC58GzVaDgXy4PpP-SY-34" value="stamp a rating" style="edgeLabel;resizable=0;html=1;align=center;verticalAlign=middle;" parent="FmC58GzVaDgXy4PpP-SY-33" connectable="0" vertex="1">
          <mxGeometry relative="1" as="geometry">
            <mxPoint x="2" y="1" as="offset" />
          </mxGeometry>
        </mxCell>
        <mxCell id="AQjIn_1hDFpW3jY2rimR-2" value="Choices" style="text;html=1;strokeColor=none;fillColor=none;align=center;verticalAlign=middle;whiteSpace=wrap;rounded=0;" vertex="1" parent="1">
          <mxGeometry x="642.5" y="170" width="60" height="30" as="geometry" />
        </mxCell>
        <mxCell id="AQjIn_1hDFpW3jY2rimR-3" value="User" style="rounded=0;whiteSpace=wrap;html=1;" vertex="1" parent="1">
          <mxGeometry x="640" y="330" width="50" height="30" as="geometry" />
        </mxCell>
        <mxCell id="AQjIn_1hDFpW3jY2rimR-4" value="" style="endArrow=classic;html=1;rounded=0;exitX=0;exitY=0.5;exitDx=0;exitDy=0;entryX=1.008;entryY=0.134;entryDx=0;entryDy=0;entryPerimeter=0;" edge="1" parent="1" source="AQjIn_1hDFpW3jY2rimR-3" target="gic03VplcVnoxDSR1JPC-21">
          <mxGeometry width="50" height="50" relative="1" as="geometry">
            <mxPoint x="230" y="330" as="sourcePoint" />
            <mxPoint x="280" y="280" as="targetPoint" />
          </mxGeometry>
        </mxCell>
      </root>
    </mxGraphModel>
  </diagram>
  <diagram id="wTBre1W5WhBfpewH-RO0" name="Страница 2">
    <mxGraphModel dx="1434" dy="796" grid="1" gridSize="10" guides="1" tooltips="1" connect="1" arrows="1" fold="1" page="1" pageScale="1" pageWidth="827" pageHeight="1169" math="0" shadow="0">
      <root>
        <mxCell id="0" />
        <mxCell id="1" parent="0" />
      </root>
    </mxGraphModel>
  </diagram>
</mxfile>
